<?xml version="1.0" encoding="UTF-8" standalone="no"?>
<!-- Created with Inkscape (http://www.inkscape.org/) -->

<svg
   xmlns:dc="http://purl.org/dc/elements/1.1/"
   xmlns:cc="http://creativecommons.org/ns#"
   xmlns:rdf="http://www.w3.org/1999/02/22-rdf-syntax-ns#"
   xmlns:svg="http://www.w3.org/2000/svg"
   xmlns="http://www.w3.org/2000/svg"
   xmlns:sodipodi="http://sodipodi.sourceforge.net/DTD/sodipodi-0.dtd"
   xmlns:inkscape="http://www.inkscape.org/namespaces/inkscape"
   width="76.081757mm"
   height="19.90974mm"
   viewBox="0 0 76.081757 19.90974"
   version="1.1"
   id="svg8"
   inkscape:version="0.92.4 (unknown)"
   sodipodi:docname="logo.svg">
  <defs
     id="defs2" />
  <sodipodi:namedview
     id="base"
     pagecolor="#ffffff"
     bordercolor="#666666"
     borderopacity="1.0"
     inkscape:pageopacity="0.0"
     inkscape:pageshadow="2"
     inkscape:zoom="2.8"
     inkscape:cx="164.92978"
     inkscape:cy="59.357051"
     inkscape:document-units="mm"
     inkscape:current-layer="layer1"
     showgrid="false"
     inkscape:snap-global="false"
     showguides="false"
     inkscape:guide-bbox="true"
     fit-margin-top="0"
     fit-margin-left="0"
     fit-margin-right="0"
     fit-margin-bottom="0"
     inkscape:window-width="1906"
     inkscape:window-height="1036"
     inkscape:window-x="1927"
     inkscape:window-y="37"
     inkscape:window-maximized="1">
    <sodipodi:guide
       position="145.35664,-108.72105"
       orientation="1,0"
       id="guide24"
       inkscape:locked="false" />
    <inkscape:grid
       type="xygrid"
       id="grid26"
       originx="-2.4434126"
       originy="-274.96268" />
    <sodipodi:guide
       position="63.702418,-223.55794"
       orientation="0,1"
       id="guide833"
       inkscape:locked="false" />
    <sodipodi:guide
       position="74.797478,-217.90066"
       orientation="0,1"
       id="guide835"
       inkscape:locked="false" />
    <sodipodi:guide
       position="7.1004859,0.014988775"
       orientation="0,1"
       id="guide854"
       inkscape:locked="false" />
  </sodipodi:namedview>
  <metadata
     id="metadata5">
    <rdf:RDF>
      <cc:Work
         rdf:about="">
        <dc:format>image/svg+xml</dc:format>
        <dc:type
           rdf:resource="http://purl.org/dc/dcmitype/StillImage" />
        <dc:title></dc:title>
      </cc:Work>
    </rdf:RDF>
  </metadata>
  <g
     inkscape:label="Laag 1"
     inkscape:groupmode="layer"
     id="layer1"
     transform="translate(-2.4434126,-2.1275596)">
    <g
       id="g844"
       transform="matrix(0.11001493,0,0,0.11001493,-0.66162185,-5.2650625)">
      <path
         sodipodi:nodetypes="czzcczzccc"
         inkscape:connector-curvature="0"
         d="m 44.734604,67.196535 c 32.571437,10.611839 32.306185,35.760795 34.456186,62.027295 2.150001,26.2665 20.099615,49.59293 36.50028,64.5681 16.40066,14.97517 29.89206,26.91992 29.64829,46.39375 l -17.01722,7.98393 c -0.16208,-20.17394 -10.578,-31.22769 -27.8262,-45.96015 C 83.247742,187.477 63.326919,160.15562 62.708932,132.60088 62.090945,105.04614 55.1525,83.058705 28.223755,76.630476 l 16.510691,-9.433941 z"
         id="path10"
         style="fill:#4d4d4d;fill-opacity:1;stroke:none;stroke-width:0.26458332" />
      <path
         sodipodi:nodetypes="czzcczzcc"
         inkscape:connector-curvature="0"
         d="m 32.657181,248.11369 c 0.470024,-2.94481 2.09822,-8.04875 5.023997,-14.4386 2.925777,-6.38984 13.984629,-20.20434 24.28726,-27.1338 10.302631,-6.92946 16.521446,-10.23687 32.240257,-17.9589 0,0 2.097502,0.19015 -1.206939,4.03106 -8.636245,5.06147 -18.601469,9.54352 -26.277031,15.45169 -7.675561,5.90817 -15.566915,16.63625 -17.367679,21.17885 -1.800764,4.54261 -2.943643,7.70848 -3.28241,10.63925 z"
         id="path12"
         style="fill:#4d4d4d;fill-opacity:1;stroke:none;stroke-width:0.26458332" />
      <path
         sodipodi:nodetypes="cc"
         inkscape:connector-curvature="0"
         id="path14"
         d="M 74.906241,74.268286 H 147.80005"
         style="fill:#000000;stroke:#000000;stroke-width:3.62644267;stroke-linecap:round;stroke-linejoin:miter;stroke-miterlimit:4;stroke-dasharray:none;stroke-opacity:1" />
      <path
         sodipodi:nodetypes="cc"
         inkscape:connector-curvature="0"
         id="path16"
         d="M 90.375699,132.47662 H 147.80005"
         style="fill:#000000;stroke:#000000;stroke-width:3.62644267;stroke-linecap:round;stroke-linejoin:miter;stroke-miterlimit:4;stroke-dasharray:none;stroke-opacity:1" />
      <path
         sodipodi:nodetypes="cc"
         inkscape:connector-curvature="0"
         id="path18"
         d="m 123.03061,190.68495 h 24.76944"
         style="fill:#000000;stroke:#000000;stroke-width:3.62644267;stroke-linecap:round;stroke-linejoin:miter;stroke-miterlimit:4;stroke-dasharray:none;stroke-opacity:1" />
      <path
         sodipodi:nodetypes="cc"
         inkscape:connector-curvature="0"
         id="path20"
         d="M 86.689762,103.37245 H 147.80005"
         style="fill:#000000;stroke:#000000;stroke-width:3.62644267;stroke-linecap:round;stroke-linejoin:miter;stroke-miterlimit:4;stroke-dasharray:none;stroke-opacity:1" />
      <path
         sodipodi:nodetypes="cc"
         inkscape:connector-curvature="0"
         id="path22"
         d="m 101.21984,161.58078 h 46.58021"
         style="fill:#000000;stroke:#000000;stroke-width:3.62644267;stroke-linecap:round;stroke-linejoin:miter;stroke-miterlimit:4;stroke-dasharray:none;stroke-opacity:1" />
    </g>
    <g
       aria-label="Entangled"
       transform="matrix(0.67550901,0,0,0.71613631,-55.520334,-21.363)"
       style="font-style:normal;font-weight:normal;font-size:40px;line-height:1.25;font-family:sans-serif;letter-spacing:0px;word-spacing:0px;fill:#000000;fill-opacity:1;stroke:none"
       id="flowRoot846">
      <path
         d="m 113.53417,49.773437 h 9.13085 v -0.805662 h -8.19091 v -6.89289 h 7.58666 v -0.805662 h -7.58666 v -6.221505 h 8.19091 v -0.805662 h -9.13085 z"
         style="font-style:normal;font-variant:normal;font-weight:300;font-stretch:normal;font-size:22.37951279px;font-family:Cantarell;-inkscape-font-specification:'Cantarell Light';letter-spacing:-1.09729671px"
         id="path4601"
         inkscape:connector-curvature="0" />
      <path
         d="m 124.66413,49.773437 h 0.91756 v -8.750389 c 0.82805,-0.850421 2.12606,-1.38753 3.46883,-1.38753 1.99178,0 3.11075,1.186114 3.11075,3.22265 v 6.915269 h 0.89518 v -7.049546 c 0,-2.394608 -1.40991,-3.871656 -3.80452,-3.871656 -1.4099,0 -2.75268,0.514729 -3.73737,1.40991 l -0.17904,-1.253253 h -0.67139 z"
         style="font-style:normal;font-variant:normal;font-weight:300;font-stretch:normal;font-size:22.37951279px;font-family:Cantarell;-inkscape-font-specification:'Cantarell Light';letter-spacing:-1.09729671px"
         id="path4603"
         inkscape:connector-curvature="0" />
      <path
         d="m 138.45061,49.862956 c 0.60425,0 1.2085,-0.156657 1.72322,-0.358073 l -0.22379,-0.649006 c -0.42521,0.179037 -0.89518,0.268555 -1.29801,0.268555 -1.16374,0 -1.94702,-0.805663 -1.94702,-2.014157 v -7.34048 h 3.11075 v -0.760903 h -3.11075 v -3.088373 h -0.91756 v 3.088373 h -1.43229 v 0.760903 h 1.43229 v 7.497137 c 0,1.566566 1.05184,2.596024 2.66316,2.596024 z"
         style="font-style:normal;font-variant:normal;font-weight:300;font-stretch:normal;font-size:22.37951279px;font-family:Cantarell;-inkscape-font-specification:'Cantarell Light';letter-spacing:-1.09729671px"
         id="path4605"
         inkscape:connector-curvature="0" />
      <path
         d="m 144.18816,49.997233 c 1.47705,0 2.7303,-0.581868 3.6031,-1.588946 l 0.2238,1.36515 h 0.67138 v -7.206203 c 0,-2.372228 -1.38753,-3.714999 -3.78214,-3.714999 -1.25325,0 -2.64078,0.358072 -3.80451,0.962319 l 0.22379,0.649006 c 1.07422,-0.492349 2.28271,-0.805662 3.37931,-0.805662 1.99177,0 3.08837,1.007078 3.08837,2.954095 v 1.141356 c -4.85635,0.02238 -7.07193,1.051837 -7.07193,3.289788 0,1.790361 1.36515,2.954096 3.46883,2.954096 z m -2.55127,-3.065994 c 0,-1.745602 1.83512,-2.506505 6.15437,-2.528885 v 3.24503 c -0.91756,1.029457 -2.03654,1.566566 -3.33455,1.566566 -1.70084,0 -2.81982,-0.91756 -2.81982,-2.282711 z"
         style="font-style:normal;font-variant:normal;font-weight:300;font-stretch:normal;font-size:22.37951279px;font-family:Cantarell;-inkscape-font-specification:'Cantarell Light';letter-spacing:-1.09729671px"
         id="path4607"
         inkscape:connector-curvature="0" />
      <path
         d="m 151.26988,49.773437 h 0.91756 v -8.750389 c 0.82804,-0.850421 2.12605,-1.38753 3.46882,-1.38753 1.99178,0 3.11075,1.186114 3.11075,3.22265 v 6.915269 h 0.89518 v -7.049546 c 0,-2.394608 -1.40991,-3.871656 -3.80451,-3.871656 -1.40991,0 -2.75268,0.514729 -3.73738,1.40991 l -0.17904,-1.253253 h -0.67138 z"
         style="font-style:normal;font-variant:normal;font-weight:300;font-stretch:normal;font-size:22.37951279px;font-family:Cantarell;-inkscape-font-specification:'Cantarell Light';letter-spacing:-1.09729671px"
         id="path4609"
         inkscape:connector-curvature="0" />
      <path
         d="m 166.30961,49.997233 c 1.43229,0 2.59602,-0.581868 3.42406,-1.656084 v 1.902258 c 0,2.484126 -1.23087,3.826897 -3.51358,3.826897 -1.00708,0 -2.03654,-0.268554 -3.17789,-0.805663 l -0.2238,0.716145 c 1.14136,0.581867 2.21557,0.872801 3.31217,0.872801 2.79744,0 4.52066,-1.812741 4.52066,-4.699698 V 38.986512 h -0.67138 l -0.2238,1.38753 c -0.78328,-0.984698 -1.92464,-1.521807 -3.35693,-1.521807 -2.90933,0 -4.85635,2.237952 -4.85635,5.617258 0,3.312168 1.90226,5.52774 4.76684,5.52774 z m -3.84928,-5.617258 c 0,-2.819819 1.49943,-4.744457 3.89404,-4.744457 1.49942,0 2.68554,0.693765 3.3793,1.902259 v 5.841053 c -0.69376,1.163734 -1.81274,1.83512 -3.22265,1.83512 -2.46174,0 -4.05069,-1.947018 -4.05069,-4.833975 z"
         style="font-style:normal;font-variant:normal;font-weight:300;font-stretch:normal;font-size:22.37951279px;font-family:Cantarell;-inkscape-font-specification:'Cantarell Light';letter-spacing:-1.09729671px"
         id="path4611"
         inkscape:connector-curvature="0" />
      <path
         d="m 175.34638,49.840576 c 0.44759,0 0.93994,-0.08952 1.29801,-0.268554 l -0.22379,-0.626626 c -0.24618,0.111897 -0.55949,0.179036 -0.82804,0.179036 -0.85043,0 -1.3204,-0.604247 -1.3204,-1.521807 V 33.234978 h -0.89518 v 14.501924 c 0,1.275632 0.76091,2.103674 1.9694,2.103674 z"
         style="font-style:normal;font-variant:normal;font-weight:300;font-stretch:normal;font-size:22.37951279px;font-family:Cantarell;-inkscape-font-specification:'Cantarell Light';letter-spacing:-1.09729671px"
         id="path4613"
         inkscape:connector-curvature="0" />
      <path
         d="m 182.30886,49.997233 c 1.18611,0 2.34984,-0.290934 3.2674,-0.872801 l -0.20141,-0.626627 c -0.91756,0.49235 -1.94702,0.760904 -2.93172,0.760904 -2.66316,0 -4.34162,-1.812741 -4.43114,-4.766837 h 8.01186 c 0.0224,-0.201415 0.0448,-0.537108 0.0448,-0.805662 0,-2.864578 -1.7456,-4.833975 -4.29686,-4.833975 -2.79744,0 -4.67732,2.260331 -4.67732,5.572499 0,3.424065 2.01416,5.572499 5.21443,5.572499 z m -0.60425,-10.361715 c 2.14843,0 3.4912,1.588946 3.4912,4.16259 h -7.16144 c 0.13428,-2.618403 1.49943,-4.16259 3.67024,-4.16259 z"
         style="font-style:normal;font-variant:normal;font-weight:300;font-stretch:normal;font-size:22.37951279px;font-family:Cantarell;-inkscape-font-specification:'Cantarell Light';letter-spacing:-1.09729671px"
         id="path4615"
         inkscape:connector-curvature="0" />
      <path
         d="m 192.04114,49.997233 c 1.40991,0 2.59603,-0.581868 3.40169,-1.633705 v 0.04476 l 0.22379,1.36515 h 0.67139 v -16.53846 h -0.89518 v 7.071926 c -0.78328,-0.93994 -1.90226,-1.454669 -3.28979,-1.454669 -2.93172,0 -4.87873,2.260331 -4.87873,5.617258 0,3.312168 1.90226,5.52774 4.76683,5.52774 z m -3.84927,-5.617258 c 0,-2.819819 1.49942,-4.744457 3.89403,-4.744457 1.47705,0 2.66316,0.693765 3.35693,1.879879 v 5.908192 c -0.69377,1.118975 -1.81274,1.790361 -3.20027,1.790361 -2.46175,0 -4.05069,-1.947018 -4.05069,-4.833975 z"
         style="font-style:normal;font-variant:normal;font-weight:300;font-stretch:normal;font-size:22.37951279px;font-family:Cantarell;-inkscape-font-specification:'Cantarell Light';letter-spacing:-1.09729671px"
         id="path4617"
         inkscape:connector-curvature="0" />
    </g>
    <g
       aria-label="literate programming"
       transform="matrix(0.26458333,0,0,0.26458333,2.7835912,-7.0950596)"
       style="font-style:normal;font-variant:normal;font-weight:normal;font-stretch:normal;font-size:40px;line-height:1.25;font-family:monofur;-inkscape-font-specification:monofur;letter-spacing:0px;word-spacing:0px;fill:#000000;fill-opacity:1;stroke:none"
       id="flowRoot4620">
      <path
         d="m 71.57849,106.69694 c 0.266666,0 0.56,-0.0533 0.773333,-0.16 L 72.21849,106.1636 c -0.146667,0.0667 -0.333334,0.10667 -0.493334,0.10667 -0.506666,0 -0.786666,-0.36 -0.786666,-0.90667 v -8.559998 h -0.533334 v 8.639998 c 0,0.76 0.453334,1.25334 1.173334,1.25334 z"
         style="font-style:normal;font-variant:normal;font-weight:300;font-stretch:normal;font-size:13.33333397px;font-family:Cantarell;-inkscape-font-specification:'Cantarell Light';letter-spacing:2.99000001px;word-spacing:7.30000639px"
         id="path4630"
         inkscape:connector-curvature="0" />
      <path
         d="m 77.010365,98.443602 c 0.266667,0 0.44,-0.173333 0.44,-0.44 0,-0.266667 -0.173333,-0.44 -0.44,-0.44 -0.266667,0 -0.44,0.173333 -0.44,0.44 0,0.266667 0.173333,0.44 0.44,0.44 z m -0.293333,8.213338 h 0.546666 v -6.41334 h -0.546666 z"
         style="font-style:normal;font-variant:normal;font-weight:300;font-stretch:normal;font-size:13.33333397px;font-family:Cantarell;-inkscape-font-specification:'Cantarell Light';letter-spacing:2.99000001px;word-spacing:7.30000639px"
         id="path4632"
         inkscape:connector-curvature="0" />
      <path
         d="m 84.263699,106.71027 c 0.36,0 0.72,-0.0933 1.026666,-0.21333 l -0.133333,-0.38667 c -0.253333,0.10667 -0.533333,0.16 -0.773333,0.16 -0.693334,0 -1.160001,-0.48 -1.160001,-1.2 v -4.37333 h 1.853334 v -0.45334 h -1.853334 v -1.839998 h -0.546666 v 1.839998 h -0.853334 v 0.45334 h 0.853334 v 4.46666 c 0,0.93334 0.626667,1.54667 1.586667,1.54667 z"
         style="font-style:normal;font-variant:normal;font-weight:300;font-stretch:normal;font-size:13.33333397px;font-family:Cantarell;-inkscape-font-specification:'Cantarell Light';letter-spacing:2.99000001px;word-spacing:7.30000639px"
         id="path4634"
         inkscape:connector-curvature="0" />
      <path
         d="m 92.485783,106.79027 c 0.706666,0 1.4,-0.17333 1.946666,-0.52 l -0.12,-0.37333 c -0.546666,0.29333 -1.16,0.45333 -1.746666,0.45333 -1.586667,0 -2.586667,-1.08 -2.64,-2.84 h 4.773333 c 0.01333,-0.12 0.02667,-0.32 0.02667,-0.48 0,-1.70667 -1.04,-2.88 -2.56,-2.88 -1.666667,0 -2.786667,1.34667 -2.786667,3.32 0,2.04 1.2,3.32 3.106667,3.32 z m -0.36,-6.17333 c 1.28,0 2.08,0.94666 2.08,2.48 h -4.266667 c 0.08,-1.56 0.893333,-2.48 2.186667,-2.48 z"
         style="font-style:normal;font-variant:normal;font-weight:300;font-stretch:normal;font-size:13.33333397px;font-family:Cantarell;-inkscape-font-specification:'Cantarell Light';letter-spacing:2.99000001px;word-spacing:7.30000639px"
         id="path4636"
         inkscape:connector-curvature="0" />
      <path
         d="m 99.501199,106.65694 h 0.546671 v -4.89334 c 0.44,-0.65333 1.12,-1.04 1.85333,-1.04 0.22667,0 0.48,0.04 0.69333,0.12 l 0.14667,-0.46666 c -0.22667,-0.0933 -0.50667,-0.14667 -0.78667,-0.14667 -0.78666,0 -1.49333,0.37333 -1.93333,1.02667 l -0.06667,-1.01334 h -0.453333 z"
         style="font-style:normal;font-variant:normal;font-weight:300;font-stretch:normal;font-size:13.33333397px;font-family:Cantarell;-inkscape-font-specification:'Cantarell Light';letter-spacing:2.99000001px;word-spacing:7.30000639px"
         id="path4638"
         inkscape:connector-curvature="0" />
      <path
         d="m 108.55578,106.79027 c 0.88,0 1.62667,-0.34667 2.14667,-0.94667 l 0.13333,0.81334 h 0.4 v -4.29334 c 0,-1.41333 -0.82666,-2.21333 -2.25333,-2.21333 -0.74667,0 -1.57333,0.21333 -2.26667,0.57333 l 0.13334,0.38667 c 0.64,-0.29333 1.36,-0.48 2.01333,-0.48 1.18667,0 1.84,0.6 1.84,1.76 v 0.68 c -2.89333,0.0133 -4.21333,0.62667 -4.21333,1.96 0,1.06667 0.81333,1.76 2.06666,1.76 z m -1.52,-1.82667 c 0,-1.04 1.09334,-1.49333 3.66667,-1.50666 v 1.93333 c -0.54667,0.61333 -1.21333,0.93333 -1.98667,0.93333 -1.01333,0 -1.68,-0.54666 -1.68,-1.36 z"
         style="font-style:normal;font-variant:normal;font-weight:300;font-stretch:normal;font-size:13.33333397px;font-family:Cantarell;-inkscape-font-specification:'Cantarell Light';letter-spacing:2.99000001px;word-spacing:7.30000639px"
         id="path4640"
         inkscape:connector-curvature="0" />
      <path
         d="m 118.0987,106.71027 c 0.36,0 0.72,-0.0933 1.02667,-0.21333 l -0.13334,-0.38667 c -0.25333,0.10667 -0.53333,0.16 -0.77333,0.16 -0.69333,0 -1.16,-0.48 -1.16,-1.2 v -4.37333 h 1.85333 v -0.45334 h -1.85333 v -1.839998 h -0.54667 v 1.839998 h -0.85333 v 0.45334 h 0.85333 v 4.46666 c 0,0.93334 0.62667,1.54667 1.58667,1.54667 z"
         style="font-style:normal;font-variant:normal;font-weight:300;font-stretch:normal;font-size:13.33333397px;font-family:Cantarell;-inkscape-font-specification:'Cantarell Light';letter-spacing:2.99000001px;word-spacing:7.30000639px"
         id="path4642"
         inkscape:connector-curvature="0" />
      <path
         d="m 126.32078,106.79027 c 0.70667,0 1.4,-0.17333 1.94667,-0.52 l -0.12,-0.37333 c -0.54667,0.29333 -1.16,0.45333 -1.74667,0.45333 -1.58667,0 -2.58667,-1.08 -2.64,-2.84 h 4.77334 c 0.0133,-0.12 0.0267,-0.32 0.0267,-0.48 0,-1.70667 -1.04,-2.88 -2.56,-2.88 -1.66667,0 -2.78667,1.34667 -2.78667,3.32 0,2.04 1.2,3.32 3.10667,3.32 z m -0.36,-6.17333 c 1.28,0 2.08,0.94666 2.08,2.48 h -4.26667 c 0.08,-1.56 0.89334,-2.48 2.18667,-2.48 z"
         style="font-style:normal;font-variant:normal;font-weight:300;font-stretch:normal;font-size:13.33333397px;font-family:Cantarell;-inkscape-font-specification:'Cantarell Light';letter-spacing:2.99000001px;word-spacing:7.30000639px"
         id="path4644"
         inkscape:connector-curvature="0" />
      <path
         d="m 146.38663,109.55027 h 0.53333 v -3.73333 c 0.45333,0.62666 1.14667,0.97333 2.01333,0.97333 1.70667,0 2.86667,-1.34667 2.86667,-3.37333 0,-1.97334 -1.12,-3.26667 -2.77333,-3.26667 -0.89334,0 -1.61334,0.36 -2.10667,0.98667 l -0.14667,-0.89334 h -0.38666 z m 2.50666,-8.93333 c 1.42667,0 2.36,1.12 2.36,2.86666 0,1.72 -0.90666,2.84 -2.28,2.84 -0.92,0 -1.65333,-0.48 -2.05333,-1.25333 v -3.38667 c 0.44,-0.66666 1.12,-1.06666 1.97333,-1.06666 z"
         style="font-style:normal;font-variant:normal;font-weight:300;font-stretch:normal;font-size:13.33333397px;font-family:Cantarell;-inkscape-font-specification:'Cantarell Light';letter-spacing:2.99000001px;word-spacing:7.30000639px"
         id="path4646"
         inkscape:connector-curvature="0" />
      <path
         d="m 156.66829,106.65694 h 0.54667 v -4.89334 c 0.44,-0.65333 1.12,-1.04 1.85333,-1.04 0.22667,0 0.48,0.04 0.69333,0.12 l 0.14667,-0.46666 c -0.22667,-0.0933 -0.50667,-0.14667 -0.78667,-0.14667 -0.78666,0 -1.49333,0.37333 -1.93333,1.02667 l -0.0667,-1.01334 h -0.45333 z"
         style="font-style:normal;font-variant:normal;font-weight:300;font-stretch:normal;font-size:13.33333397px;font-family:Cantarell;-inkscape-font-specification:'Cantarell Light';letter-spacing:2.99000001px;word-spacing:7.30000639px"
         id="path4648"
         inkscape:connector-curvature="0" />
      <path
         d="m 166.6562,106.79027 c 1.73334,0 2.92,-1.34667 2.92,-3.36 0,-1.98667 -1.14666,-3.28 -2.85333,-3.28 -1.77333,0 -2.94667,1.34667 -2.94667,3.34667 0,1.98666 1.13334,3.29333 2.88,3.29333 z m 0.0667,-0.46667 c -1.45333,0 -2.4,-1.16 -2.4,-2.88 0,-1.68 0.89333,-2.82666 2.30667,-2.82666 1.44,0 2.4,1.14666 2.4,2.88 0,1.72 -0.92,2.82666 -2.30667,2.82666 z"
         style="font-style:normal;font-variant:normal;font-weight:300;font-stretch:normal;font-size:13.33333397px;font-family:Cantarell;-inkscape-font-specification:'Cantarell Light';letter-spacing:2.99000001px;word-spacing:7.30000639px"
         id="path4650"
         inkscape:connector-curvature="0" />
      <path
         d="m 176.87183,106.79027 c 0.85334,0 1.54667,-0.34667 2.04,-0.98667 v 1.13334 c 0,1.48 -0.73333,2.28 -2.09333,2.28 -0.6,0 -1.21333,-0.16 -1.89333,-0.48 l -0.13334,0.42666 c 0.68,0.34667 1.32,0.52 1.97334,0.52 1.66666,0 2.69333,-1.08 2.69333,-2.8 v -6.65333 h -0.4 l -0.13333,0.82667 c -0.46667,-0.58667 -1.14667,-0.90667 -2,-0.90667 -1.73334,0 -2.89334,1.33333 -2.89334,3.34667 0,1.97333 1.13334,3.29333 2.84,3.29333 z m -2.29333,-3.34667 c 0,-1.68 0.89333,-2.82666 2.32,-2.82666 0.89333,0 1.6,0.41333 2.01333,1.13333 v 3.48 c -0.41333,0.69333 -1.08,1.09333 -1.92,1.09333 -1.46666,0 -2.41333,-1.16 -2.41333,-2.88 z"
         style="font-style:normal;font-variant:normal;font-weight:300;font-stretch:normal;font-size:13.33333397px;font-family:Cantarell;-inkscape-font-specification:'Cantarell Light';letter-spacing:2.99000001px;word-spacing:7.30000639px"
         id="path4652"
         inkscape:connector-curvature="0" />
      <path
         d="m 184.75288,106.65694 h 0.54666 v -4.89334 c 0.44,-0.65333 1.12,-1.04 1.85334,-1.04 0.22666,0 0.48,0.04 0.69333,0.12 l 0.14667,-0.46666 c -0.22667,-0.0933 -0.50667,-0.14667 -0.78667,-0.14667 -0.78667,0 -1.49333,0.37333 -1.93333,1.02667 l -0.0667,-1.01334 h -0.45333 z"
         style="font-style:normal;font-variant:normal;font-weight:300;font-stretch:normal;font-size:13.33333397px;font-family:Cantarell;-inkscape-font-specification:'Cantarell Light';letter-spacing:2.99000001px;word-spacing:7.30000639px"
         id="path4654"
         inkscape:connector-curvature="0" />
      <path
         d="m 193.80746,106.79027 c 0.88,0 1.62666,-0.34667 2.14666,-0.94667 l 0.13334,0.81334 h 0.4 v -4.29334 c 0,-1.41333 -0.82667,-2.21333 -2.25334,-2.21333 -0.74666,0 -1.57333,0.21333 -2.26666,0.57333 l 0.13333,0.38667 c 0.64,-0.29333 1.36,-0.48 2.01333,-0.48 1.18667,0 1.84,0.6 1.84,1.76 v 0.68 c -2.89333,0.0133 -4.21333,0.62667 -4.21333,1.96 0,1.06667 0.81333,1.76 2.06667,1.76 z m -1.52,-1.82667 c 0,-1.04 1.09333,-1.49333 3.66666,-1.50666 v 1.93333 c -0.54666,0.61333 -1.21333,0.93333 -1.98666,0.93333 -1.01334,0 -1.68,-0.54666 -1.68,-1.36 z"
         style="font-style:normal;font-variant:normal;font-weight:300;font-stretch:normal;font-size:13.33333397px;font-family:Cantarell;-inkscape-font-specification:'Cantarell Light';letter-spacing:2.99000001px;word-spacing:7.30000639px"
         id="path4656"
         inkscape:connector-curvature="0" />
      <path
         d="m 201.67038,106.65694 h 0.54667 v -5.25334 c 0.56,-0.49333 1.28,-0.78666 2.01333,-0.78666 1.12,0 1.78667,0.70666 1.78667,1.92 v 4.12 h 0.54666 v -4.2 c 0,-0.33334 -0.04,-0.64 -0.13333,-0.90667 0.57333,-0.58667 1.34667,-0.93333 2.13333,-0.93333 1.13334,0 1.8,0.70666 1.8,1.92 v 4.12 h 0.54667 v -4.2 c 0,-1.45334 -0.85333,-2.30667 -2.21333,-2.30667 -0.89334,0 -1.76,0.38667 -2.4,1.06667 -0.36,-0.69334 -1.04,-1.06667 -1.93334,-1.06667 -0.78666,0 -1.57333,0.29333 -2.17333,0.81333 l -0.12,-0.72 h -0.4 z"
         style="font-style:normal;font-variant:normal;font-weight:300;font-stretch:normal;font-size:13.33333397px;font-family:Cantarell;-inkscape-font-specification:'Cantarell Light';letter-spacing:2.99000001px;word-spacing:7.30000639px"
         id="path4658"
         inkscape:connector-curvature="0" />
      <path
         d="m 216.09267,106.65694 h 0.54666 v -5.25334 c 0.56,-0.49333 1.28,-0.78666 2.01334,-0.78666 1.12,0 1.78666,0.70666 1.78666,1.92 v 4.12 h 0.54667 v -4.2 c 0,-0.33334 -0.04,-0.64 -0.13333,-0.90667 0.57333,-0.58667 1.34666,-0.93333 2.13333,-0.93333 1.13333,0 1.8,0.70666 1.8,1.92 v 4.12 h 0.54667 v -4.2 c 0,-1.45334 -0.85334,-2.30667 -2.21334,-2.30667 -0.89333,0 -1.76,0.38667 -2.4,1.06667 -0.36,-0.69334 -1.04,-1.06667 -1.93333,-1.06667 -0.78667,0 -1.57333,0.29333 -2.17333,0.81333 l -0.12,-0.72 h -0.4 z"
         style="font-style:normal;font-variant:normal;font-weight:300;font-stretch:normal;font-size:13.33333397px;font-family:Cantarell;-inkscape-font-specification:'Cantarell Light';letter-spacing:2.99000001px;word-spacing:7.30000639px"
         id="path4660"
         inkscape:connector-curvature="0" />
      <path
         d="m 230.84829,98.443602 c 0.26666,0 0.44,-0.173333 0.44,-0.44 0,-0.266667 -0.17334,-0.44 -0.44,-0.44 -0.26667,0 -0.44,0.173333 -0.44,0.44 0,0.266667 0.17333,0.44 0.44,0.44 z m -0.29334,8.213338 h 0.54667 v -6.41334 h -0.54667 z"
         style="font-style:normal;font-variant:normal;font-weight:300;font-stretch:normal;font-size:13.33333397px;font-family:Cantarell;-inkscape-font-specification:'Cantarell Light';letter-spacing:2.99000001px;word-spacing:7.30000639px"
         id="path4662"
         inkscape:connector-curvature="0" />
      <path
         d="m 236.42163,106.65694 h 0.54667 v -5.21334 c 0.49333,-0.50666 1.26666,-0.82666 2.06666,-0.82666 1.18667,0 1.85334,0.70666 1.85334,1.92 v 4.12 h 0.53333 v -4.2 c 0,-1.42667 -0.84,-2.30667 -2.26667,-2.30667 -0.84,0 -1.64,0.30667 -2.22666,0.84 l -0.10667,-0.74667 h -0.4 z"
         style="font-style:normal;font-variant:normal;font-weight:300;font-stretch:normal;font-size:13.33333397px;font-family:Cantarell;-inkscape-font-specification:'Cantarell Light';letter-spacing:2.99000001px;word-spacing:7.30000639px"
         id="path4664"
         inkscape:connector-curvature="0" />
      <path
         d="m 249.02579,106.79027 c 0.85333,0 1.54666,-0.34667 2.04,-0.98667 v 1.13334 c 0,1.48 -0.73334,2.28 -2.09334,2.28 -0.6,0 -1.21333,-0.16 -1.89333,-0.48 l -0.13333,0.42666 c 0.68,0.34667 1.32,0.52 1.97333,0.52 1.66667,0 2.69333,-1.08 2.69333,-2.8 v -6.65333 h -0.4 l -0.13333,0.82667 c -0.46667,-0.58667 -1.14667,-0.90667 -2,-0.90667 -1.73333,0 -2.89333,1.33333 -2.89333,3.34667 0,1.97333 1.13333,3.29333 2.84,3.29333 z m -2.29334,-3.34667 c 0,-1.68 0.89334,-2.82666 2.32,-2.82666 0.89334,0 1.6,0.41333 2.01334,1.13333 v 3.48 c -0.41334,0.69333 -1.08,1.09333 -1.92,1.09333 -1.46667,0 -2.41334,-1.16 -2.41334,-2.88 z"
         style="font-style:normal;font-variant:normal;font-weight:300;font-stretch:normal;font-size:13.33333397px;font-family:Cantarell;-inkscape-font-specification:'Cantarell Light';letter-spacing:2.99000001px;word-spacing:7.30000639px"
         id="path4666"
         inkscape:connector-curvature="0" />
    </g>
  </g>
</svg>
