<?xml version="1.0" encoding="UTF-8" standalone="no"?>
<!DOCTYPE svg PUBLIC "-//W3C//DTD SVG 1.1//EN"
 "http://www.w3.org/Graphics/SVG/1.1/DTD/svg11.dtd">
<!-- Generated by graphviz version 2.40.1 (0)
 -->
<!-- Title: G Pages: 1 -->
<svg width="242pt" height="392pt"
 viewBox="0.00 0.00 242.49 392.00" xmlns="http://www.w3.org/2000/svg" xmlns:xlink="http://www.w3.org/1999/xlink">
<g id="graph0" class="graph" transform="scale(1 1) rotate(0) translate(4 388)">
<title>G</title>
<polygon fill="#ffffff" stroke="transparent" points="-4,4 -4,-388 238.4937,-388 238.4937,4 -4,4"/>
<!-- Markdown -->
<g id="node1" class="node">
<title>Markdown</title>
<ellipse fill="none" stroke="#000000" cx="102" cy="-366" rx="60.3893" ry="18"/>
<text text-anchor="middle" x="102" y="-362.3" font-family="Times,serif" font-size="14.00" fill="#000000">Markdown</text>
</g>
<!-- Sources -->
<g id="node2" class="node">
<title>Sources</title>
<ellipse fill="none" stroke="#000000" cx="70" cy="-279" rx="48.1917" ry="18"/>
<text text-anchor="middle" x="70" y="-275.3" font-family="Times,serif" font-size="14.00" fill="#000000">Sources</text>
</g>
<!-- Markdown&#45;&gt;Sources -->
<g id="edge1" class="edge">
<title>Markdown&#45;&gt;Sources:n</title>
<path fill="none" stroke="#000000" d="M88.6145,-348.2926C81.4214,-337.3308 73.5035,-322.4553 70.8903,-307.1131"/>
<polygon fill="#000000" stroke="#000000" points="74.3636,-306.6545 70,-297 67.3905,-307.2684 74.3636,-306.6545"/>
<text text-anchor="middle" x="50.8853" y="-328.1341" font-family="Times,serif" font-size="14.00" fill="#000000">tangle </text>
</g>
<!-- Intermediate -->
<g id="node3" class="node">
<title>Intermediate</title>
<ellipse fill="none" stroke="#000000" cx="163" cy="-105" rx="71.4873" ry="18"/>
<text text-anchor="middle" x="163" y="-101.3" font-family="Times,serif" font-size="14.00" fill="#000000">Intermediate</text>
</g>
<!-- Markdown&#45;&gt;Intermediate -->
<g id="edge2" class="edge">
<title>Markdown&#45;&gt;Intermediate</title>
<path fill="none" stroke="#000000" d="M130.6609,-350.15C137.8629,-344.7304 144.746,-337.9821 149,-330 182.8404,-266.5025 175.297,-178.1686 168.356,-133.4165"/>
<polygon fill="#000000" stroke="#000000" points="171.763,-132.567 166.6749,-123.2739 164.8572,-133.7117 171.763,-132.567"/>
<text text-anchor="middle" x="190" y="-231.8" font-family="Times,serif" font-size="14.00" fill="#000000"> knit</text>
</g>
<!-- Sources&#45;&gt;Markdown -->
<g id="edge5" class="edge">
<title>Sources:ne&#45;&gt;Markdown</title>
<path fill="none" stroke="#000000" d="M87,-296C97.785,-306.785 101.6769,-323.3157 102.8061,-337.6051"/>
<polygon fill="#000000" stroke="#000000" points="99.3224,-338.1032 103.1995,-347.9631 106.3174,-337.8375 99.3224,-338.1032"/>
<text text-anchor="middle" x="124" y="-318.8" font-family="Times,serif" font-size="14.00" fill="#000000"> stitch</text>
</g>
<!-- Executable -->
<g id="node4" class="node">
<title>Executable</title>
<ellipse fill="none" stroke="#000000" cx="70" cy="-192" rx="63.0888" ry="18"/>
<text text-anchor="middle" x="70" y="-188.3" font-family="Times,serif" font-size="14.00" fill="#000000">Executable</text>
</g>
<!-- Sources&#45;&gt;Executable -->
<g id="edge6" class="edge">
<title>Sources&#45;&gt;Executable</title>
<path fill="none" stroke="#000000" d="M70,-260.9735C70,-249.1918 70,-233.5607 70,-220.1581"/>
<polygon fill="#000000" stroke="#000000" points="73.5001,-220.0033 70,-210.0034 66.5001,-220.0034 73.5001,-220.0033"/>
<text text-anchor="middle" x="35" y="-238.9891" font-family="Times,serif" font-size="14.00" fill="#000000"> &#160;compile </text>
</g>
<!-- Publication -->
<g id="node5" class="node">
<title>Publication</title>
<ellipse fill="none" stroke="#000000" cx="71" cy="-18" rx="63.8893" ry="18"/>
<text text-anchor="middle" x="71" y="-14.3" font-family="Times,serif" font-size="14.00" fill="#000000">Publication</text>
</g>
<!-- Intermediate&#45;&gt;Publication -->
<g id="edge4" class="edge">
<title>Intermediate&#45;&gt;Publication:ne</title>
<path fill="none" stroke="#000000" d="M143.4857,-87.4905C130.3676,-75.5788 112.5711,-59.1487 96.3302,-43.2495"/>
<polygon fill="#000000" stroke="#000000" points="98.5713,-40.5434 89,-36 93.6489,-45.5204 98.5713,-40.5434"/>
<text text-anchor="middle" x="149.5" y="-57.8" font-family="Times,serif" font-size="14.00" fill="#000000"> weave </text>
</g>
<!-- Executable&#45;&gt;Intermediate -->
<g id="edge3" class="edge">
<title>Executable&#45;&gt;Intermediate</title>
<path fill="none" stroke="#000000" d="M84.1723,-174.1908C92.6464,-164.0044 103.8964,-151.2544 115,-141 119.7206,-136.6404 124.9534,-132.2915 130.1773,-128.2013"/>
<polygon fill="#000000" stroke="#000000" points="132.462,-130.8609 138.3042,-122.0223 128.2254,-125.2886 132.462,-130.8609"/>
<text text-anchor="middle" x="132" y="-144.8" font-family="Times,serif" font-size="14.00" fill="#000000"> knit</text>
</g>
<!-- Executable&#45;&gt;Publication -->
<g id="edge7" class="edge">
<title>Executable&#45;&gt;Publication</title>
<path fill="none" stroke="#000000" d="M70.1051,-173.7078C70.2796,-143.3436 70.6303,-82.3226 70.8371,-46.3464"/>
<polygon fill="#000000" stroke="#000000" points="74.3387,-46.0671 70.8963,-36.0471 67.3388,-46.0268 74.3387,-46.0671"/>
<text text-anchor="middle" x="51.0003" y="-108.7425" font-family="Times,serif" font-size="14.00" fill="#000000"> run &#160;</text>
</g>
</g>
</svg>
